# xmcd
#
# Track frame offsets: 
#        150
#        25088
#        51028
#        73306
#        89623
#        115798
#        140302
#        159572
#        174474
#        190498
#
# Disc length: 2727 seconds
#
# Revision: 0
# Processed by: cddbd v1.5.2PL0 Copyright (c) Steve Scherf et al.
# Submitted via: ExactAudioCopyFreeDBPlugin 1.0
#
DISCID=890aa50a
DTITLE=Jon Lucien - Song For My Lady
DYEAR=1975
DGENRE=Soul
TTITLE0=Soul Mate
TTITLE1=Dindi
TTITLE2=Motherland
TTITLE3=You Are My Love
TTITLE4=Maiden Voyage
TTITLE5=Creole Lady
TTITLE6=Song For My Lady
TTITLE7=Follow Your Heart
TTITLE8=Creole Lady (Single Version)
TTITLE9=Follow Your Heart (Early Version)
EXTD=
EXTT0=
EXTT1=
EXTT2=
EXTT3=
EXTT4=
EXTT5=
EXTT6=
EXTT7=
EXTT8=
EXTT9=
PLAYORDER=
